<svg width="260" height="220" viewBox="0 0 260 220" fill="none" xmlns="http://www.w3.org/2000/svg" role="img" aria-label="Wedding rings">
  <path d="M71 144c-16-5-26-20-26-38 0-24 19-43 43-43 18 0 33 11 39 27" stroke="#D2A645" stroke-width="12" stroke-linecap="round"/>
  <path d="M88 144c24 0 43-19 43-43S112 58 88 58 45 77 45 101s19 43 43 43Z" stroke="#F2C75C" stroke-width="9"/>
  <path d="M168 154c31 0 56-25 56-56s-25-56-56-56-56 25-56 56 25 56 56 56Z" stroke="#E7B94D" stroke-width="11"/>
  <path d="M168 135c20 0 37-16 37-37s-17-37-37-37-37 16-37 37 17 37 37 37Z" stroke="#FFF1BB" stroke-width="7"/>
  <path d="M137 42l20-22 26 4 9 26-23 20-26-6-6-22Z" fill="#A8D7E9"/>
  <path d="M157 20l12 50" stroke="#6BAFC9" stroke-width="4" stroke-linecap="round"/>
  <path d="M137 42l55 8" stroke="#6BAFC9" stroke-width="4" stroke-linecap="round"/>
  <path d="M34 171c52 18 123 19 188 0" stroke="#E9B1C5" stroke-width="5" stroke-linecap="round"/>
  <path d="M58 178c33 8 90 12 144 1" stroke="#79A98C" stroke-width="4" stroke-linecap="round"/>
</svg>
